# xmcd
#
# Track frame offsets:
#	150
#	15683
#	35231
#	47268
#	61740
#	85152
#	102330
#	117363
#	131131
#	146796
#	164457
#
# Disc length: 2461 seconds
# Revision: 0
# Processed by: cddbd v1.5.2PL0 Copyright (c) Steve Scherf et al.
# Submitted via: dBpowerAMP V12.0
#
DISCID=96099b0b
DTITLE=Bill Reid and The Fewer Sorrows Band - Double Lucky Blues
DYEAR=2015
DGENRE=Blues
TTITLE0=Double Lucky Blues
TTITLE1=Never Get To Memphis
TTITLE2=Can't Get Somethin' For Nothin'
TTITLE3=Snake Farm
TTITLE4=Hootchie Cootchie Man
TTITLE5=One Meat Ball
TTITLE6=That's The Bag I'm In
TTITLE7=Hard Lovin' Loser
TTITLE8=Green Rocky Road
TTITLE9=Candy Man
TTITLE10=Coffee And Old Men
EXTD=
EXTT0=
EXTT1=
EXTT2=
EXTT3=
EXTT4=
EXTT5=
EXTT6=
EXTT7=
EXTT8=
EXTT9=
EXTT10=
PLAYORDER=
